<svg xmlns="http://www.w3.org/2000/svg" viewBox="0 0 32 32" fill="none">
  <circle cx="16" cy="16" r="16" fill="#2D374B"/>
  <path d="M16.8 10.3l4.6 7.8 2.2-3.7L18.2 5.6h-3.4l2 4.7z" fill="#28A0F0"/>
  <path d="M16.8 10.3l-6 10.2h4.4l3.4-5.8-1.8-4.4z" fill="#fff"/>
  <path d="M6.4 22.5l2.8 1.6 1.6-2.7H6.4v1.1z" fill="#28A0F0"/>
  <path d="M21.2 24.1l4.4-2.5v-3.2l-2.2 3.7-4.6-7.8L16.8 10.3 14.8 5.6H11.4l-5 8.8v5l2.2 3.8h2.2l6-10.2h.4l6 10.2h2.2l-3.2-5.4 1.4 2.3-2.6 4z" fill="#fff"/>
  <path d="M25.6 18.4v3.2l-4.4 2.5-2.6-4 3.2 5.4H25.6l0-7.1z" fill="#28A0F0"/>
</svg>
