<svg xmlns="http://www.w3.org/2000/svg" viewBox="0 0 32 32" fill="none">
  <circle cx="16" cy="16" r="16" fill="#F5AC37"/>
  <path d="M16.3 5.8h-5.5v8.4H7.2v2.8h3.6v1.2H7.2V21h3.6v5.2h5.5c5.5 0 9.3-3.6 9.3-10.2s-3.8-10.2-9.3-10.2zm-.3 17.6h-2.4V21h2.4c3.5 0 5.7-2 6.3-3.8h-8.7v-1.2h9c0-.5.1-1 .1-1.4s0-.9-.1-1.4h-9v-1.2h8.7c-.6-1.8-2.8-3.8-6.3-3.8H13.6V21h2.4V17h2.4v-1.2h-2.4v-1.2h2.4v-1.2h-2.4v-1.2h2.4c2.4 0 3.9 1.5 4.3 3.2h.2c-.4-2.4-2.6-4.4-5.7-4.4h-3.6v8.4h3.6c3.1 0 5.3-2 5.7-4.4h-.2c-.4 1.7-1.9 3.2-4.3 3.2z" fill="#FEFEFD" fill-opacity=".85"/>
</svg>
