<svg xmlns="http://www.w3.org/2000/svg" viewBox="0 0 32 32" fill="none">
  <circle cx="16" cy="16" r="16" fill="#2775CA"/>
  <path d="M20.2 18.4c0-2.1-1.3-2.8-3.8-3.1-1.8-.3-2.2-.7-2.2-1.5s.7-1.3 1.8-1.3c1 0 1.6.4 1.9 1.2.1.2.2.3.4.3h1c.2 0 .4-.2.3-.4-.3-1.2-1.2-2.2-2.5-2.4v-1.5c0-.2-.2-.4-.5-.4h-.8c-.3 0-.5.2-.5.4v1.4c-1.7.3-2.8 1.4-2.8 2.8 0 2 1.2 2.7 3.7 3.1 1.6.3 2.3.7 2.3 1.6 0 .9-.8 1.5-1.9 1.5-1.5 0-2-.6-2.2-1.4-.1-.2-.2-.3-.4-.3h-1c-.2 0-.4.2-.3.4.3 1.5 1.3 2.4 2.9 2.7v1.5c0 .2.2.4.5.4h.8c.3 0 .5-.2.5-.4v-1.5c1.8-.3 2.8-1.5 2.8-3.1z" fill="#fff"/>
  <path d="M13 25.2c-4.3-1.5-6.5-6.2-5-10.5 .8-2.2 2.5-3.9 4.7-4.7.2-.1.3-.3.3-.5v-.9c0-.2-.1-.4-.3-.3-5.3 1.6-8.2 7.3-6.6 12.5 1 3.1 3.5 5.6 6.6 6.6.2.1.4-.1.4-.3v-.9c0-.2-.2-.4-.4-.5l.3-.5zm6-.1c-.2-.1-.4.1-.4.3v.9c0 .2.1.4.3.3 5.3-1.6 8.2-7.3 6.6-12.5-1-3.1-3.5-5.6-6.6-6.6-.2-.1-.4.1-.4.3v.9c0 .2.2.4.4.5 4.3 1.5 6.5 6.2 5 10.5-.8 2.2-2.5 3.9-4.6 4.7l-.3.7z" fill="#fff"/>
</svg>
