<svg xmlns="http://www.w3.org/2000/svg" viewBox="0 0 32 32" fill="none">
  <circle cx="16" cy="16" r="16" fill="#26A17B"/>
  <path d="M17.9 17.1v-.1c-.1 0-.7-.1-2-.1-1 0-1.7 0-1.9.1v.1c-3.4.2-5.9.8-5.9 1.5s2.5 1.4 5.9 1.5v5.4h3.8v-5.4c3.4-.2 5.9-.8 5.9-1.5s-2.4-1.3-5.8-1.5zm0 2.6v-.1c-.3 0-.9.1-1.9.1s-1.7-.1-2-.1c-2.8-.1-4.9-.6-4.9-1.2 0-.5 2.1-1 4.9-1.2v1.8c.3 0 1 .1 2 .1 1.2 0 1.7-.1 1.9-.1v-1.8c2.8.1 4.9.7 4.9 1.2 0 .6-2.1 1.1-4.9 1.3z" fill="#fff"/>
  <path d="M17.9 14.3v-2.6h4.6V8.3H9.5v3.4h4.6v2.6c-3.8.2-6.6 1-6.6 2s2.8 1.8 6.6 2v7.2h3.8v-7.2c3.8-.2 6.6-1 6.6-2s-2.8-1.8-6.6-2z" fill="#fff"/>
</svg>
